<mxfile host="app.diagrams.net" agent="Mozilla/5.0 (X11; Linux x86_64) AppleWebKit/537.36 (KHTML, like Gecko) Chrome/128.0.0.0 Safari/537.36 Edg/128.0.0.0" version="24.7.10">
  <diagram name="第 1 页" id="qYDKqiWonB4HB9HCKALA">
    <mxGraphModel dx="1803" dy="2056" grid="1" gridSize="10" guides="1" tooltips="1" connect="1" arrows="1" fold="1" page="1" pageScale="1" pageWidth="827" pageHeight="1169" math="0" shadow="0">
      <root>
        <mxCell id="0" />
        <mxCell id="1" parent="0" />
        <mxCell id="kYZcgvSroyiyH40Z3_NP-1" value="" style="edgeStyle=orthogonalEdgeStyle;rounded=0;orthogonalLoop=1;jettySize=auto;html=1;" parent="1" source="kYZcgvSroyiyH40Z3_NP-2" target="kYZcgvSroyiyH40Z3_NP-34" edge="1">
          <mxGeometry relative="1" as="geometry">
            <mxPoint x="1145" y="140" as="targetPoint" />
          </mxGeometry>
        </mxCell>
        <mxCell id="kYZcgvSroyiyH40Z3_NP-2" value="&lt;div style=&quot;font-family: &amp;quot;JetBrains Mono&amp;quot;, &amp;quot;GoMono Nerd Font&amp;quot;, Consolas, &amp;quot;Courier New&amp;quot;, monospace, &amp;quot;Droid Sans Mono&amp;quot;, &amp;quot;monospace&amp;quot;, monospace; font-size: 19px; line-height: 27px; white-space: pre;&quot;&gt;&lt;div style=&quot;color: rgb(36, 41, 46); line-height: 27px;&quot;&gt;&lt;span style=&quot;color: rgb(106, 115, 125);&quot;&gt;memory&lt;/span&gt;&lt;/div&gt;&lt;div style=&quot;color: rgb(36, 41, 46); line-height: 27px;&quot;&gt;&lt;span style=&quot;color: rgb(106, 115, 125);&quot;&gt;attention&lt;/span&gt;&lt;/div&gt;&lt;/div&gt;" style="rounded=0;whiteSpace=wrap;html=1;fillColor=#DAE8FC;strokeColor=#6c8ebf;" parent="1" vertex="1">
          <mxGeometry x="957.5" width="105" height="170" as="geometry" />
        </mxCell>
        <mxCell id="kYZcgvSroyiyH40Z3_NP-3" value="&lt;div style=&quot;text-align: start;&quot;&gt;&lt;span style=&quot;background-color: initial; font-size: 11px; white-space: pre;&quot;&gt;&lt;font face=&quot;-apple-system, BlinkMacSystemFont, Segoe WPC, Segoe UI, Ubuntu, Droid Sans, sans-serif&quot; color=&quot;#242424&quot;&gt;&lt;b&gt;current_vision_feats&lt;/b&gt;&lt;/font&gt;&lt;/span&gt;&lt;/div&gt;&lt;div style=&quot;text-align: start;&quot;&gt;&lt;b style=&quot;color: rgb(36, 36, 36); font-family: -apple-system, BlinkMacSystemFont, &amp;quot;Segoe WPC&amp;quot;, &amp;quot;Segoe UI&amp;quot;, Ubuntu, &amp;quot;Droid Sans&amp;quot;, sans-serif; font-size: 11px; white-space: pre;&quot;&gt;[1, 256, 64, 64]&lt;/b&gt;&lt;span style=&quot;background-color: initial;&quot;&gt;&lt;font style=&quot;&quot; face=&quot;-apple-system, BlinkMacSystemFont, Segoe WPC, Segoe UI, Ubuntu, Droid Sans, sans-serif&quot; color=&quot;#242424&quot;&gt;&lt;b style=&quot;font-size: 11px; white-space: pre;&quot;&gt;&lt;br&gt;&lt;/b&gt;&lt;/font&gt;&lt;/span&gt;&lt;/div&gt;" style="rounded=0;whiteSpace=wrap;html=1;fillColor=#ffe6cc;strokeColor=#d79b00;" parent="1" vertex="1">
          <mxGeometry x="720" y="20" width="110" height="40" as="geometry" />
        </mxCell>
        <mxCell id="kYZcgvSroyiyH40Z3_NP-5" value="&lt;div style=&quot;text-align: start;&quot;&gt;&lt;span style=&quot;background-color: initial; font-size: 11px; white-space: pre;&quot;&gt;&lt;font face=&quot;-apple-system, BlinkMacSystemFont, Segoe WPC, Segoe UI, Ubuntu, Droid Sans, sans-serif&quot; color=&quot;#242424&quot;&gt;&lt;b&gt;current_vision_pos_embeds&lt;/b&gt;&lt;/font&gt;&lt;/span&gt;&lt;/div&gt;&lt;div style=&quot;text-align: start;&quot;&gt;&lt;b style=&quot;font-size: 11px; white-space: pre; color: rgb(36, 36, 36); font-family: -apple-system, BlinkMacSystemFont, &amp;quot;Segoe WPC&amp;quot;, &amp;quot;Segoe UI&amp;quot;, Ubuntu, &amp;quot;Droid Sans&amp;quot;, sans-serif; background-color: initial;&quot;&gt;[4096, 1, 256]&lt;/b&gt;&lt;br&gt;&lt;/div&gt;" style="rounded=0;whiteSpace=wrap;html=1;fillColor=#ffe6cc;strokeColor=#d79b00;" parent="1" vertex="1">
          <mxGeometry x="720" y="70" width="160" height="40" as="geometry" />
        </mxCell>
        <mxCell id="wb2xqiaQXkxDXaYG9y4y-6" value="" style="edgeStyle=orthogonalEdgeStyle;rounded=0;orthogonalLoop=1;jettySize=auto;html=1;" edge="1" parent="1" source="kYZcgvSroyiyH40Z3_NP-6" target="kYZcgvSroyiyH40Z3_NP-2">
          <mxGeometry relative="1" as="geometry">
            <mxPoint x="853" y="200" as="targetPoint" />
            <Array as="points">
              <mxPoint x="850" y="160" />
            </Array>
          </mxGeometry>
        </mxCell>
        <mxCell id="wb2xqiaQXkxDXaYG9y4y-32" value="" style="edgeStyle=orthogonalEdgeStyle;rounded=0;orthogonalLoop=1;jettySize=auto;html=1;exitX=1;exitY=0.75;exitDx=0;exitDy=0;dashed=1;" edge="1" parent="1" source="kYZcgvSroyiyH40Z3_NP-3" target="kYZcgvSroyiyH40Z3_NP-32">
          <mxGeometry relative="1" as="geometry">
            <mxPoint x="950" y="410" as="targetPoint" />
            <Array as="points">
              <mxPoint x="930" y="50" />
              <mxPoint x="930" y="430" />
              <mxPoint x="950" y="430" />
              <mxPoint x="950" y="431" />
            </Array>
          </mxGeometry>
        </mxCell>
        <mxCell id="wb2xqiaQXkxDXaYG9y4y-33" value="第0帧时" style="edgeLabel;html=1;align=center;verticalAlign=middle;resizable=0;points=[];" vertex="1" connectable="0" parent="wb2xqiaQXkxDXaYG9y4y-32">
          <mxGeometry x="0.1405" y="-1" relative="1" as="geometry">
            <mxPoint as="offset" />
          </mxGeometry>
        </mxCell>
        <mxCell id="kYZcgvSroyiyH40Z3_NP-6" value="&lt;div style=&quot;text-align: start;&quot;&gt;&lt;span style=&quot;background-color: initial; font-size: 11px; white-space: pre;&quot;&gt;&lt;font face=&quot;-apple-system, BlinkMacSystemFont, Segoe WPC, Segoe UI, Ubuntu, Droid Sans, sans-serif&quot; color=&quot;#242424&quot;&gt;&lt;b&gt;memory_pos_embed&lt;/b&gt;&lt;/font&gt;&lt;/span&gt;&lt;/div&gt;&lt;div style=&quot;text-align: start;&quot;&gt;&lt;span style=&quot;background-color: initial;&quot;&gt;&lt;font style=&quot;&quot; face=&quot;-apple-system, BlinkMacSystemFont, Segoe WPC, Segoe UI, Ubuntu, Droid Sans, sans-serif&quot; color=&quot;#242424&quot;&gt;&lt;span style=&quot;font-size: 11px; white-space: pre;&quot;&gt;&lt;b&gt;[7&lt;/b&gt;&lt;/span&gt;&lt;/font&gt;&lt;/span&gt;&lt;b style=&quot;color: rgb(36, 36, 36); font-family: -apple-system, BlinkMacSystemFont, &amp;quot;Segoe WPC&amp;quot;, &amp;quot;Segoe UI&amp;quot;, Ubuntu, &amp;quot;Droid Sans&amp;quot;, sans-serif; font-size: 11px; text-align: center; white-space: pre;&quot;&gt;*4096+64&lt;/b&gt;&lt;span style=&quot;background-color: initial;&quot;&gt;&lt;font style=&quot;&quot; face=&quot;-apple-system, BlinkMacSystemFont, Segoe WPC, Segoe UI, Ubuntu, Droid Sans, sans-serif&quot; color=&quot;#242424&quot;&gt;&lt;span style=&quot;font-size: 11px; white-space: pre;&quot;&gt;&lt;b&gt;, 1, 64]&lt;/b&gt;&lt;/span&gt;&lt;b style=&quot;font-size: 11px; white-space: pre;&quot;&gt;&lt;br&gt;&lt;/b&gt;&lt;/font&gt;&lt;/span&gt;&lt;/div&gt;" style="rounded=0;whiteSpace=wrap;html=1;fillColor=#ffe6cc;strokeColor=#d79b00;" parent="1" vertex="1">
          <mxGeometry x="788" y="280" width="130" height="40" as="geometry" />
        </mxCell>
        <mxCell id="kYZcgvSroyiyH40Z3_NP-8" value="" style="endArrow=classic;html=1;rounded=0;exitX=1;exitY=0.5;exitDx=0;exitDy=0;entryX=0.029;entryY=0.244;entryDx=0;entryDy=0;entryPerimeter=0;" parent="1" source="kYZcgvSroyiyH40Z3_NP-3" target="kYZcgvSroyiyH40Z3_NP-2" edge="1">
          <mxGeometry width="50" height="50" relative="1" as="geometry">
            <mxPoint x="945" y="110" as="sourcePoint" />
            <mxPoint x="995" y="60" as="targetPoint" />
          </mxGeometry>
        </mxCell>
        <mxCell id="kYZcgvSroyiyH40Z3_NP-11" value="" style="endArrow=classic;html=1;rounded=0;exitX=1;exitY=0.5;exitDx=0;exitDy=0;entryX=0.014;entryY=0.537;entryDx=0;entryDy=0;entryPerimeter=0;" parent="1" source="kYZcgvSroyiyH40Z3_NP-5" target="kYZcgvSroyiyH40Z3_NP-2" edge="1">
          <mxGeometry width="50" height="50" relative="1" as="geometry">
            <mxPoint x="945" y="110" as="sourcePoint" />
            <mxPoint x="995" y="60" as="targetPoint" />
          </mxGeometry>
        </mxCell>
        <mxCell id="wb2xqiaQXkxDXaYG9y4y-26" value="" style="edgeStyle=orthogonalEdgeStyle;rounded=0;orthogonalLoop=1;jettySize=auto;html=1;entryX=0;entryY=0.5;entryDx=0;entryDy=0;" edge="1" parent="1" source="kYZcgvSroyiyH40Z3_NP-16" target="kYZcgvSroyiyH40Z3_NP-24">
          <mxGeometry relative="1" as="geometry" />
        </mxCell>
        <mxCell id="kYZcgvSroyiyH40Z3_NP-16" value="&lt;div style=&quot;font-family: &amp;quot;JetBrains Mono&amp;quot;, &amp;quot;GoMono Nerd Font&amp;quot;, Consolas, &amp;quot;Courier New&amp;quot;, monospace, &amp;quot;Droid Sans Mono&amp;quot;, &amp;quot;monospace&amp;quot;, monospace; font-size: 19px; line-height: 27px; white-space: pre;&quot;&gt;&lt;font color=&quot;#808080&quot;&gt;image_encoder&lt;/font&gt;&lt;/div&gt;" style="rounded=0;whiteSpace=wrap;html=1;fillColor=#DAE8FC;strokeColor=#6c8ebf;" parent="1" vertex="1">
          <mxGeometry x="10" y="110" width="170" height="50" as="geometry" />
        </mxCell>
        <mxCell id="kYZcgvSroyiyH40Z3_NP-17" value="" style="edgeStyle=orthogonalEdgeStyle;rounded=0;orthogonalLoop=1;jettySize=auto;html=1;" parent="1" source="kYZcgvSroyiyH40Z3_NP-33" target="kYZcgvSroyiyH40Z3_NP-16" edge="1">
          <mxGeometry relative="1" as="geometry">
            <mxPoint x="95" y="60" as="sourcePoint" />
          </mxGeometry>
        </mxCell>
        <mxCell id="kYZcgvSroyiyH40Z3_NP-19" value="" style="endArrow=classic;html=1;rounded=0;exitX=0.559;exitY=0.998;exitDx=0;exitDy=0;exitPerimeter=0;" parent="1" source="kYZcgvSroyiyH40Z3_NP-16" target="kYZcgvSroyiyH40Z3_NP-22" edge="1">
          <mxGeometry width="50" height="50" relative="1" as="geometry">
            <mxPoint x="200" y="170" as="sourcePoint" />
            <mxPoint x="280" y="80" as="targetPoint" />
          </mxGeometry>
        </mxCell>
        <mxCell id="kYZcgvSroyiyH40Z3_NP-21" value="" style="edgeStyle=orthogonalEdgeStyle;rounded=0;orthogonalLoop=1;jettySize=auto;html=1;entryX=0.5;entryY=0;entryDx=0;entryDy=0;" parent="1" source="kYZcgvSroyiyH40Z3_NP-22" target="kYZcgvSroyiyH40Z3_NP-38" edge="1">
          <mxGeometry relative="1" as="geometry">
            <mxPoint x="96.5" y="330" as="targetPoint" />
          </mxGeometry>
        </mxCell>
        <mxCell id="kYZcgvSroyiyH40Z3_NP-22" value="&lt;div style=&quot;text-align: start;&quot;&gt;&lt;span style=&quot;background-color: initial; font-size: 11px; white-space: pre;&quot;&gt;&lt;font face=&quot;-apple-system, BlinkMacSystemFont, Segoe WPC, Segoe UI, Ubuntu, Droid Sans, sans-serif&quot; color=&quot;#242424&quot;&gt;&lt;b&gt;vision_features&lt;/b&gt;&lt;/font&gt;&lt;/span&gt;&lt;/div&gt;&lt;div style=&quot;text-align: start;&quot;&gt;&lt;span style=&quot;background-color: initial; font-size: 11px; white-space: pre;&quot;&gt;&lt;font face=&quot;-apple-system, BlinkMacSystemFont, Segoe WPC, Segoe UI, Ubuntu, Droid Sans, sans-serif&quot; color=&quot;#242424&quot;&gt;&lt;b&gt;[1,256,64,64]&lt;/b&gt;&lt;/font&gt;&lt;/span&gt;&lt;/div&gt;" style="rounded=0;whiteSpace=wrap;html=1;" parent="1" vertex="1">
          <mxGeometry x="50" y="245" width="110" height="40" as="geometry" />
        </mxCell>
        <mxCell id="kYZcgvSroyiyH40Z3_NP-23" value="" style="edgeStyle=orthogonalEdgeStyle;rounded=0;orthogonalLoop=1;jettySize=auto;html=1;" parent="1" source="kYZcgvSroyiyH40Z3_NP-24" target="kYZcgvSroyiyH40Z3_NP-65" edge="1">
          <mxGeometry relative="1" as="geometry" />
        </mxCell>
        <mxCell id="kYZcgvSroyiyH40Z3_NP-24" value="&lt;div style=&quot;text-align: start;&quot;&gt;&lt;span style=&quot;background-color: initial; font-size: 11px; white-space: pre;&quot;&gt;&lt;font face=&quot;-apple-system, BlinkMacSystemFont, Segoe WPC, Segoe UI, Ubuntu, Droid Sans, sans-serif&quot; color=&quot;#242424&quot;&gt;&lt;b&gt;vision_pos_enc[3]&lt;/b&gt;&lt;/font&gt;&lt;/span&gt;&lt;/div&gt;&lt;div style=&quot;text-align: start;&quot;&gt;&lt;span style=&quot;background-color: initial;&quot;&gt;&lt;font style=&quot;&quot; face=&quot;-apple-system, BlinkMacSystemFont, Segoe WPC, Segoe UI, Ubuntu, Droid Sans, sans-serif&quot; color=&quot;#242424&quot;&gt;&lt;span style=&quot;font-size: 11px; white-space: pre;&quot;&gt;&lt;b&gt;[1, 256, 256, 256]&lt;/b&gt;&lt;/span&gt;&lt;b style=&quot;font-size: 11px; white-space: pre;&quot;&gt;&lt;br&gt;&lt;/b&gt;&lt;/font&gt;&lt;/span&gt;&lt;/div&gt;&lt;div style=&quot;text-align: start;&quot;&gt;&lt;span style=&quot;background-color: initial;&quot;&gt;&lt;font style=&quot;&quot; face=&quot;-apple-system, BlinkMacSystemFont, Segoe WPC, Segoe UI, Ubuntu, Droid Sans, sans-serif&quot; color=&quot;#242424&quot;&gt;&lt;span style=&quot;font-size: 11px; white-space: pre;&quot;&gt;&lt;b&gt;[1, 256, 128, 128]&lt;/b&gt;&lt;/span&gt;&lt;b style=&quot;font-size: 11px; white-space: pre;&quot;&gt;&lt;br&gt;&lt;/b&gt;&lt;/font&gt;&lt;/span&gt;&lt;/div&gt;&lt;div style=&quot;text-align: start;&quot;&gt;&lt;span style=&quot;background-color: initial;&quot;&gt;&lt;font style=&quot;&quot; face=&quot;-apple-system, BlinkMacSystemFont, Segoe WPC, Segoe UI, Ubuntu, Droid Sans, sans-serif&quot; color=&quot;#242424&quot;&gt;&lt;span style=&quot;font-size: 11px; white-space: pre;&quot;&gt;&lt;b&gt;[1, 256, 64, 64]&lt;/b&gt;&lt;/span&gt;&lt;b style=&quot;font-size: 11px; white-space: pre;&quot;&gt;&lt;br&gt;&lt;/b&gt;&lt;/font&gt;&lt;/span&gt;&lt;/div&gt;" style="rounded=0;whiteSpace=wrap;html=1;" parent="1" vertex="1">
          <mxGeometry x="240" y="30" width="110" height="65" as="geometry" />
        </mxCell>
        <mxCell id="kYZcgvSroyiyH40Z3_NP-25" value="" style="edgeStyle=orthogonalEdgeStyle;rounded=0;orthogonalLoop=1;jettySize=auto;html=1;" parent="1" source="kYZcgvSroyiyH40Z3_NP-26" target="kYZcgvSroyiyH40Z3_NP-67" edge="1">
          <mxGeometry relative="1" as="geometry" />
        </mxCell>
        <mxCell id="kYZcgvSroyiyH40Z3_NP-26" value="&lt;div style=&quot;text-align: start;&quot;&gt;&lt;span style=&quot;background-color: initial; font-size: 11px; white-space: pre;&quot;&gt;&lt;font face=&quot;-apple-system, BlinkMacSystemFont, Segoe WPC, Segoe UI, Ubuntu, Droid Sans, sans-serif&quot; color=&quot;#242424&quot;&gt;&lt;b&gt;backbone_fpn[3]&lt;/b&gt;&lt;/font&gt;&lt;/span&gt;&lt;/div&gt;&lt;div style=&quot;text-align: start;&quot;&gt;&lt;span style=&quot;background-color: initial;&quot;&gt;&lt;font style=&quot;&quot; face=&quot;-apple-system, BlinkMacSystemFont, Segoe WPC, Segoe UI, Ubuntu, Droid Sans, sans-serif&quot; color=&quot;#242424&quot;&gt;&lt;span style=&quot;font-size: 11px; white-space: pre;&quot;&gt;&lt;b&gt;[1, 32, 256, 256]&lt;/b&gt;&lt;/span&gt;&lt;b style=&quot;font-size: 11px; white-space: pre;&quot;&gt;&lt;br&gt;&lt;/b&gt;&lt;/font&gt;&lt;/span&gt;&lt;/div&gt;&lt;div style=&quot;text-align: start;&quot;&gt;&lt;span style=&quot;background-color: initial;&quot;&gt;&lt;font style=&quot;&quot; face=&quot;-apple-system, BlinkMacSystemFont, Segoe WPC, Segoe UI, Ubuntu, Droid Sans, sans-serif&quot; color=&quot;#242424&quot;&gt;&lt;span style=&quot;font-size: 11px; white-space: pre;&quot;&gt;&lt;b&gt;[1, 64, 128, 128]&lt;/b&gt;&lt;/span&gt;&lt;b style=&quot;font-size: 11px; white-space: pre;&quot;&gt;&lt;br&gt;&lt;/b&gt;&lt;/font&gt;&lt;/span&gt;&lt;/div&gt;&lt;div style=&quot;text-align: start;&quot;&gt;&lt;span style=&quot;background-color: initial;&quot;&gt;&lt;font style=&quot;&quot; face=&quot;-apple-system, BlinkMacSystemFont, Segoe WPC, Segoe UI, Ubuntu, Droid Sans, sans-serif&quot; color=&quot;#242424&quot;&gt;&lt;span style=&quot;font-size: 11px; white-space: pre;&quot;&gt;&lt;b&gt;[1, 256, 64, 64]&lt;/b&gt;&lt;/span&gt;&lt;b style=&quot;font-size: 11px; white-space: pre;&quot;&gt;&lt;br&gt;&lt;/b&gt;&lt;/font&gt;&lt;/span&gt;&lt;/div&gt;" style="rounded=0;whiteSpace=wrap;html=1;" parent="1" vertex="1">
          <mxGeometry x="240" y="130" width="110" height="70" as="geometry" />
        </mxCell>
        <mxCell id="wb2xqiaQXkxDXaYG9y4y-21" value="" style="edgeStyle=orthogonalEdgeStyle;rounded=0;orthogonalLoop=1;jettySize=auto;html=1;" edge="1" parent="1" source="kYZcgvSroyiyH40Z3_NP-27" target="kYZcgvSroyiyH40Z3_NP-84">
          <mxGeometry relative="1" as="geometry">
            <mxPoint x="320" y="464" as="targetPoint" />
            <Array as="points">
              <mxPoint x="670" y="470" />
              <mxPoint x="670" y="470" />
            </Array>
          </mxGeometry>
        </mxCell>
        <mxCell id="wb2xqiaQXkxDXaYG9y4y-23" value="" style="edgeStyle=orthogonalEdgeStyle;rounded=0;orthogonalLoop=1;jettySize=auto;html=1;" edge="1" parent="1" source="kYZcgvSroyiyH40Z3_NP-27" target="kYZcgvSroyiyH40Z3_NP-31">
          <mxGeometry relative="1" as="geometry">
            <mxPoint x="270" y="464" as="targetPoint" />
            <Array as="points">
              <mxPoint x="310" y="470" />
              <mxPoint x="310" y="355" />
            </Array>
          </mxGeometry>
        </mxCell>
        <mxCell id="wb2xqiaQXkxDXaYG9y4y-25" value="" style="edgeStyle=orthogonalEdgeStyle;rounded=0;orthogonalLoop=1;jettySize=auto;html=1;" edge="1" parent="1" source="kYZcgvSroyiyH40Z3_NP-27" target="kYZcgvSroyiyH40Z3_NP-29">
          <mxGeometry relative="1" as="geometry">
            <mxPoint x="270" y="464" as="targetPoint" />
            <Array as="points">
              <mxPoint x="310" y="470" />
              <mxPoint x="310" y="443" />
            </Array>
          </mxGeometry>
        </mxCell>
        <mxCell id="kYZcgvSroyiyH40Z3_NP-27" value="&lt;div style=&quot;font-family: &amp;quot;JetBrains Mono&amp;quot;, &amp;quot;GoMono Nerd Font&amp;quot;, Consolas, &amp;quot;Courier New&amp;quot;, monospace, &amp;quot;Droid Sans Mono&amp;quot;, &amp;quot;monospace&amp;quot;, monospace; font-size: 19px; line-height: 27px; white-space: pre;&quot;&gt;&lt;div style=&quot;line-height: 27px;&quot;&gt;&lt;font style=&quot;&quot; color=&quot;#808080&quot;&gt;memory_encoder&lt;/font&gt;&lt;/div&gt;&lt;/div&gt;" style="rounded=0;whiteSpace=wrap;html=1;fillColor=#DAE8FC;strokeColor=#6c8ebf;" parent="1" vertex="1">
          <mxGeometry x="20" y="439" width="170" height="50" as="geometry" />
        </mxCell>
        <mxCell id="kYZcgvSroyiyH40Z3_NP-28" value="" style="edgeStyle=orthogonalEdgeStyle;rounded=0;orthogonalLoop=1;jettySize=auto;html=1;" parent="1" source="kYZcgvSroyiyH40Z3_NP-29" target="kYZcgvSroyiyH40Z3_NP-80" edge="1">
          <mxGeometry relative="1" as="geometry" />
        </mxCell>
        <mxCell id="kYZcgvSroyiyH40Z3_NP-29" value="&lt;div style=&quot;text-align: start;&quot;&gt;&lt;span style=&quot;background-color: initial; text-align: center; font-size: 11px; white-space: pre;&quot;&gt;&lt;font face=&quot;-apple-system, BlinkMacSystemFont, Segoe WPC, Segoe UI, Ubuntu, Droid Sans, sans-serif&quot; color=&quot;#242424&quot;&gt;&lt;b&gt;maskmem_pos_enc&lt;/b&gt;&lt;/font&gt;&lt;/span&gt;&lt;/div&gt;&lt;div style=&quot;text-align: start;&quot;&gt;&lt;b style=&quot;font-size: 11px; white-space: pre; color: rgb(36, 36, 36); font-family: -apple-system, BlinkMacSystemFont, &amp;quot;Segoe WPC&amp;quot;, &amp;quot;Segoe UI&amp;quot;, Ubuntu, &amp;quot;Droid Sans&amp;quot;, sans-serif; background-color: initial;&quot;&gt;[1,64,64,64]&lt;/b&gt;&lt;br&gt;&lt;/div&gt;" style="rounded=0;whiteSpace=wrap;html=1;" parent="1" vertex="1">
          <mxGeometry x="350" y="420" width="110" height="40" as="geometry" />
        </mxCell>
        <mxCell id="kYZcgvSroyiyH40Z3_NP-30" value="" style="edgeStyle=orthogonalEdgeStyle;rounded=0;orthogonalLoop=1;jettySize=auto;html=1;" parent="1" source="kYZcgvSroyiyH40Z3_NP-31" target="kYZcgvSroyiyH40Z3_NP-78" edge="1">
          <mxGeometry relative="1" as="geometry" />
        </mxCell>
        <mxCell id="kYZcgvSroyiyH40Z3_NP-31" value="&lt;div style=&quot;text-align: start;&quot;&gt;&lt;font face=&quot;-apple-system, BlinkMacSystemFont, Segoe WPC, Segoe UI, Ubuntu, Droid Sans, sans-serif&quot; color=&quot;#242424&quot;&gt;&lt;span style=&quot;font-size: 11px; white-space: pre;&quot;&gt;&lt;b&gt;maskmem_features&lt;/b&gt;&lt;/span&gt;&lt;/font&gt;&lt;br&gt;&lt;/div&gt;&lt;div style=&quot;text-align: start;&quot;&gt;&lt;font face=&quot;-apple-system, BlinkMacSystemFont, Segoe WPC, Segoe UI, Ubuntu, Droid Sans, sans-serif&quot; color=&quot;#242424&quot;&gt;&lt;span style=&quot;font-size: 11px; white-space: pre;&quot;&gt;&lt;b&gt;[1,64,64,64]&lt;/b&gt;&lt;/span&gt;&lt;/font&gt;&lt;br&gt;&lt;/div&gt;" style="rounded=0;whiteSpace=wrap;html=1;" parent="1" vertex="1">
          <mxGeometry x="350" y="335" width="103" height="40" as="geometry" />
        </mxCell>
        <mxCell id="kYZcgvSroyiyH40Z3_NP-32" value="&lt;b style=&quot;color: rgb(36, 36, 36); font-family: -apple-system, BlinkMacSystemFont, &amp;quot;Segoe WPC&amp;quot;, &amp;quot;Segoe UI&amp;quot;, Ubuntu, &amp;quot;Droid Sans&amp;quot;, sans-serif; font-size: 11px; text-align: start; white-space: pre;&quot;&gt;image_embed&lt;/b&gt;&lt;div&gt;&lt;b style=&quot;color: rgb(36, 36, 36); font-family: SFMono-Regular, Consolas, &amp;quot;Liberation Mono&amp;quot;, Menlo, Courier, monospace; font-size: 11px; text-align: start; white-space-collapse: preserve;&quot;&gt;[1,256,64,64]&lt;/b&gt;&lt;br&gt;&lt;/div&gt;" style="rounded=0;whiteSpace=wrap;html=1;fillColor=#ffe6cc;strokeColor=#d79b00;" parent="1" vertex="1">
          <mxGeometry x="967" y="413.5" width="85" height="35" as="geometry" />
        </mxCell>
        <mxCell id="kYZcgvSroyiyH40Z3_NP-33" value="&lt;div style=&quot;text-align: start;&quot;&gt;&lt;font face=&quot;-apple-system, BlinkMacSystemFont, Segoe WPC, Segoe UI, Ubuntu, Droid Sans, sans-serif&quot; color=&quot;#242424&quot;&gt;&lt;span style=&quot;font-size: 11px; white-space: pre;&quot;&gt;&lt;b&gt;image&lt;br/&gt;[1,3,1024,1024]&lt;/b&gt;&lt;/span&gt;&lt;/font&gt;&lt;/div&gt;" style="rounded=0;whiteSpace=wrap;html=1;fillColor=#ffe6cc;strokeColor=#d79b00;" parent="1" vertex="1">
          <mxGeometry x="40" y="20" width="110" height="40" as="geometry" />
        </mxCell>
        <mxCell id="kYZcgvSroyiyH40Z3_NP-34" value="[4096,1,256]" style="rounded=0;whiteSpace=wrap;html=1;" parent="1" vertex="1">
          <mxGeometry x="970" y="220" width="80" height="25" as="geometry" />
        </mxCell>
        <mxCell id="kYZcgvSroyiyH40Z3_NP-35" value="" style="endArrow=classic;html=1;rounded=0;exitX=0.486;exitY=0.911;exitDx=0;exitDy=0;exitPerimeter=0;" parent="1" source="kYZcgvSroyiyH40Z3_NP-34" target="kYZcgvSroyiyH40Z3_NP-32" edge="1">
          <mxGeometry width="50" height="50" relative="1" as="geometry">
            <mxPoint x="1135" y="230" as="sourcePoint" />
            <mxPoint x="1185" y="180" as="targetPoint" />
          </mxGeometry>
        </mxCell>
        <mxCell id="kYZcgvSroyiyH40Z3_NP-36" value="&lt;font color=&quot;#ff2626&quot;&gt;(HW)xBxC =&amp;gt; BxCxHxW&lt;/font&gt;" style="edgeLabel;html=1;align=center;verticalAlign=middle;resizable=0;points=[];" parent="kYZcgvSroyiyH40Z3_NP-35" vertex="1" connectable="0">
          <mxGeometry x="-0.1238" y="-2" relative="1" as="geometry">
            <mxPoint x="45" y="-52" as="offset" />
          </mxGeometry>
        </mxCell>
        <mxCell id="kYZcgvSroyiyH40Z3_NP-37" value="" style="edgeStyle=orthogonalEdgeStyle;rounded=0;orthogonalLoop=1;jettySize=auto;html=1;" parent="1" source="kYZcgvSroyiyH40Z3_NP-38" target="kYZcgvSroyiyH40Z3_NP-27" edge="1">
          <mxGeometry relative="1" as="geometry" />
        </mxCell>
        <mxCell id="kYZcgvSroyiyH40Z3_NP-38" value="&lt;div style=&quot;text-align: start;&quot;&gt;&lt;font face=&quot;-apple-system, BlinkMacSystemFont, Segoe WPC, Segoe UI, Ubuntu, Droid Sans, sans-serif&quot; color=&quot;#242424&quot;&gt;&lt;span style=&quot;font-size: 11px; white-space: pre;&quot;&gt;&lt;b&gt;pix_feat&lt;/b&gt;&lt;/span&gt;&lt;/font&gt;&lt;br&gt;&lt;/div&gt;&lt;div style=&quot;text-align: start;&quot;&gt;&lt;font face=&quot;-apple-system, BlinkMacSystemFont, Segoe WPC, Segoe UI, Ubuntu, Droid Sans, sans-serif&quot; color=&quot;#242424&quot;&gt;&lt;span style=&quot;font-size: 11px; white-space: pre;&quot;&gt;&lt;b&gt;[1, 256, 64, 64]&lt;/b&gt;&lt;/span&gt;&lt;b style=&quot;font-size: 11px; white-space: pre;&quot;&gt;&lt;br&gt;&lt;/b&gt;&lt;/font&gt;&lt;/div&gt;" style="rounded=0;whiteSpace=wrap;html=1;fillColor=#ffe6cc;strokeColor=#d79b00;" parent="1" vertex="1">
          <mxGeometry x="60" y="327.5" width="90" height="40" as="geometry" />
        </mxCell>
        <mxCell id="kYZcgvSroyiyH40Z3_NP-39" value="" style="edgeStyle=orthogonalEdgeStyle;rounded=0;orthogonalLoop=1;jettySize=auto;html=1;" parent="1" source="kYZcgvSroyiyH40Z3_NP-40" target="kYZcgvSroyiyH40Z3_NP-27" edge="1">
          <mxGeometry relative="1" as="geometry" />
        </mxCell>
        <mxCell id="kYZcgvSroyiyH40Z3_NP-40" value="&lt;div style=&quot;text-align: start;&quot;&gt;&lt;font face=&quot;-apple-system, BlinkMacSystemFont, Segoe WPC, Segoe UI, Ubuntu, Droid Sans, sans-serif&quot; color=&quot;#242424&quot;&gt;&lt;span style=&quot;font-size: 11px; white-space: pre;&quot;&gt;&lt;b&gt;mask_for_mem&lt;/b&gt;&lt;/span&gt;&lt;/font&gt;&lt;br&gt;&lt;/div&gt;&lt;div style=&quot;text-align: start;&quot;&gt;&lt;font face=&quot;-apple-system, BlinkMacSystemFont, Segoe WPC, Segoe UI, Ubuntu, Droid Sans, sans-serif&quot; color=&quot;#242424&quot;&gt;&lt;span style=&quot;font-size: 11px; white-space: pre;&quot;&gt;&lt;b&gt;[1, 1, 1024, 1024]&lt;/b&gt;&lt;/span&gt;&lt;b style=&quot;font-size: 11px; white-space: pre;&quot;&gt;&lt;br&gt;&lt;/b&gt;&lt;/font&gt;&lt;/div&gt;" style="rounded=0;whiteSpace=wrap;html=1;fillColor=#ffe6cc;strokeColor=#d79b00;" parent="1" vertex="1">
          <mxGeometry x="247.5" y="806" width="95" height="39.5" as="geometry" />
        </mxCell>
        <mxCell id="kYZcgvSroyiyH40Z3_NP-43" value="&lt;div style=&quot;font-family: &amp;quot;JetBrains Mono&amp;quot;, &amp;quot;GoMono Nerd Font&amp;quot;, Consolas, &amp;quot;Courier New&amp;quot;, monospace, &amp;quot;Droid Sans Mono&amp;quot;, &amp;quot;monospace&amp;quot;, monospace; font-size: 19px; line-height: 27px; white-space: pre;&quot;&gt;&lt;span style=&quot;color: rgb(128, 128, 128);&quot;&gt;image_decoder&lt;/span&gt;&lt;br&gt;&lt;/div&gt;" style="rounded=0;whiteSpace=wrap;html=1;fillColor=#DAE8FC;strokeColor=#6c8ebf;" parent="1" vertex="1">
          <mxGeometry x="372.5" y="578.5" width="690" height="50" as="geometry" />
        </mxCell>
        <mxCell id="kYZcgvSroyiyH40Z3_NP-44" value="" style="endArrow=classic;html=1;rounded=0;" parent="1" source="kYZcgvSroyiyH40Z3_NP-32" edge="1">
          <mxGeometry width="50" height="50" relative="1" as="geometry">
            <mxPoint x="1105.5" y="518.5" as="sourcePoint" />
            <mxPoint x="1010" y="580" as="targetPoint" />
          </mxGeometry>
        </mxCell>
        <mxCell id="kYZcgvSroyiyH40Z3_NP-45" value="&lt;div&gt;&lt;font color=&quot;#333333&quot;&gt;&lt;b style=&quot;font-family: -apple-system, BlinkMacSystemFont, &amp;quot;Segoe WPC&amp;quot;, &amp;quot;Segoe UI&amp;quot;, Ubuntu, &amp;quot;Droid Sans&amp;quot;, sans-serif; font-size: 11px; text-align: start; white-space: pre;&quot;&gt;point_coords&lt;/b&gt;&lt;br&gt;&lt;/font&gt;&lt;/div&gt;&lt;div&gt;&lt;b style=&quot;font-family: SFMono-Regular, Consolas, &amp;quot;Liberation Mono&amp;quot;, Menlo, Courier, monospace; font-size: 11px; text-align: start; white-space-collapse: preserve;&quot;&gt;&lt;font color=&quot;#333333&quot;&gt;[num_labels,num_points,2]&lt;/font&gt;&lt;/b&gt;&lt;b style=&quot;color: rgb(36, 36, 36); font-family: -apple-system, BlinkMacSystemFont, &amp;quot;Segoe WPC&amp;quot;, &amp;quot;Segoe UI&amp;quot;, Ubuntu, &amp;quot;Droid Sans&amp;quot;, sans-serif; font-size: 11px; text-align: start; white-space: pre; background-color: rgb(252, 252, 252);&quot;&gt;&lt;br&gt;&lt;/b&gt;&lt;/div&gt;" style="rounded=0;whiteSpace=wrap;html=1;fillColor=#ffe6cc;strokeColor=#d79b00;" parent="1" vertex="1">
          <mxGeometry x="372.5" y="489" width="160" height="40" as="geometry" />
        </mxCell>
        <mxCell id="kYZcgvSroyiyH40Z3_NP-46" value="&lt;div&gt;&lt;b style=&quot;color: rgb(36, 36, 36); font-family: -apple-system, BlinkMacSystemFont, &amp;quot;Segoe WPC&amp;quot;, &amp;quot;Segoe UI&amp;quot;, Ubuntu, &amp;quot;Droid Sans&amp;quot;, sans-serif; font-size: 11px; text-align: start; white-space: pre;&quot;&gt;point_labels&lt;/b&gt;&lt;b style=&quot;color: rgb(36, 36, 36); font-family: SFMono-Regular, Consolas, &amp;quot;Liberation Mono&amp;quot;, Menlo, Courier, monospace; font-size: 11px; text-align: start; white-space-collapse: preserve;&quot;&gt;&lt;br&gt;&lt;/b&gt;&lt;/div&gt;&lt;div&gt;&lt;b style=&quot;color: rgb(36, 36, 36); font-family: SFMono-Regular, Consolas, &amp;quot;Liberation Mono&amp;quot;, Menlo, Courier, monospace; font-size: 11px; text-align: start; white-space-collapse: preserve;&quot;&gt;[num_labels,num_points]&lt;/b&gt;&lt;br&gt;&lt;/div&gt;" style="rounded=0;whiteSpace=wrap;html=1;fillColor=#ffe6cc;strokeColor=#d79b00;" parent="1" vertex="1">
          <mxGeometry x="540.5" y="489" width="160" height="40" as="geometry" />
        </mxCell>
        <mxCell id="kYZcgvSroyiyH40Z3_NP-47" value="" style="endArrow=classic;html=1;rounded=0;exitX=0.476;exitY=1.004;exitDx=0;exitDy=0;exitPerimeter=0;entryX=0.112;entryY=0.017;entryDx=0;entryDy=0;entryPerimeter=0;" parent="1" source="kYZcgvSroyiyH40Z3_NP-45" target="kYZcgvSroyiyH40Z3_NP-43" edge="1">
          <mxGeometry width="50" height="50" relative="1" as="geometry">
            <mxPoint x="1255.5" y="558.5" as="sourcePoint" />
            <mxPoint x="1160.5" y="568.5" as="targetPoint" />
          </mxGeometry>
        </mxCell>
        <mxCell id="kYZcgvSroyiyH40Z3_NP-48" value="" style="endArrow=classic;html=1;rounded=0;exitX=0.463;exitY=1.011;exitDx=0;exitDy=0;exitPerimeter=0;entryX=0.351;entryY=0.017;entryDx=0;entryDy=0;entryPerimeter=0;" parent="1" source="kYZcgvSroyiyH40Z3_NP-46" target="kYZcgvSroyiyH40Z3_NP-43" edge="1">
          <mxGeometry width="50" height="50" relative="1" as="geometry">
            <mxPoint x="1395.5" y="568.5" as="sourcePoint" />
            <mxPoint x="1330.5" y="568.5" as="targetPoint" />
          </mxGeometry>
        </mxCell>
        <mxCell id="kYZcgvSroyiyH40Z3_NP-49" value="&lt;div style=&quot;text-align: start;&quot;&gt;&lt;font face=&quot;-apple-system, BlinkMacSystemFont, Segoe WPC, Segoe UI, Ubuntu, Droid Sans, sans-serif&quot; color=&quot;#242424&quot;&gt;&lt;span style=&quot;font-size: 11px; white-space: pre;&quot;&gt;&lt;b&gt;low_res_mul&lt;/b&gt;&lt;/span&gt;&lt;/font&gt;&lt;br&gt;&lt;/div&gt;&lt;div style=&quot;text-align: start;&quot;&gt;&lt;font face=&quot;-apple-system, BlinkMacSystemFont, Segoe WPC, Segoe UI, Ubuntu, Droid Sans, sans-serif&quot; color=&quot;#242424&quot;&gt;&lt;span style=&quot;font-size: 11px; white-space: pre;&quot;&gt;&lt;b&gt;[1,3,256,256]&lt;/b&gt;&lt;/span&gt;&lt;b style=&quot;font-size: 11px; white-space: pre;&quot;&gt;&lt;br&gt;&lt;/b&gt;&lt;/font&gt;&lt;/div&gt;" style="rounded=0;whiteSpace=wrap;html=1;" parent="1" vertex="1">
          <mxGeometry x="870" y="700.5" width="80" height="40" as="geometry" />
        </mxCell>
        <mxCell id="kYZcgvSroyiyH40Z3_NP-50" value="&lt;div style=&quot;text-align: start;&quot;&gt;&lt;font face=&quot;-apple-system, BlinkMacSystemFont, Segoe WPC, Segoe UI, Ubuntu, Droid Sans, sans-serif&quot; color=&quot;#242424&quot;&gt;&lt;span style=&quot;font-size: 11px; white-space: pre;&quot;&gt;&lt;b&gt;high_res_mul&lt;/b&gt;&lt;/span&gt;&lt;/font&gt;&lt;br&gt;&lt;/div&gt;&lt;div style=&quot;text-align: start;&quot;&gt;&lt;font face=&quot;-apple-system, BlinkMacSystemFont, Segoe WPC, Segoe UI, Ubuntu, Droid Sans, sans-serif&quot; color=&quot;#242424&quot;&gt;&lt;span style=&quot;font-size: 11px; white-space: pre;&quot;&gt;&lt;b&gt;[1,3,1024,1024]&lt;/b&gt;&lt;/span&gt;&lt;b style=&quot;font-size: 11px; white-space: pre;&quot;&gt;&lt;br&gt;&lt;/b&gt;&lt;/font&gt;&lt;/div&gt;" style="rounded=0;whiteSpace=wrap;html=1;" parent="1" vertex="1">
          <mxGeometry x="960" y="700.5" width="85" height="40" as="geometry" />
        </mxCell>
        <mxCell id="kYZcgvSroyiyH40Z3_NP-51" value="" style="edgeStyle=orthogonalEdgeStyle;rounded=0;orthogonalLoop=1;jettySize=auto;html=1;" parent="1" source="kYZcgvSroyiyH40Z3_NP-53" target="kYZcgvSroyiyH40Z3_NP-87" edge="1">
          <mxGeometry relative="1" as="geometry" />
        </mxCell>
        <mxCell id="kYZcgvSroyiyH40Z3_NP-52" value="torch.nn.functional.interpolate()采样" style="edgeLabel;html=1;align=center;verticalAlign=middle;resizable=0;points=[];" parent="kYZcgvSroyiyH40Z3_NP-51" vertex="1" connectable="0">
          <mxGeometry x="-0.1152" y="-1" relative="1" as="geometry">
            <mxPoint as="offset" />
          </mxGeometry>
        </mxCell>
        <mxCell id="kYZcgvSroyiyH40Z3_NP-53" value="&lt;div style=&quot;text-align: start;&quot;&gt;&lt;font face=&quot;-apple-system, BlinkMacSystemFont, Segoe WPC, Segoe UI, Ubuntu, Droid Sans, sans-serif&quot; color=&quot;#242424&quot;&gt;&lt;span style=&quot;font-size: 11px; white-space: pre;&quot;&gt;&lt;b&gt;low_res&lt;/b&gt;&lt;/span&gt;&lt;/font&gt;&lt;br&gt;&lt;/div&gt;&lt;div style=&quot;text-align: start;&quot;&gt;&lt;font face=&quot;-apple-system, BlinkMacSystemFont, Segoe WPC, Segoe UI, Ubuntu, Droid Sans, sans-serif&quot; color=&quot;#242424&quot;&gt;&lt;span style=&quot;font-size: 11px; white-space: pre;&quot;&gt;&lt;b&gt;[1,1,256,256]&lt;/b&gt;&lt;/span&gt;&lt;b style=&quot;font-size: 11px; white-space: pre;&quot;&gt;&lt;br&gt;&lt;/b&gt;&lt;/font&gt;&lt;/div&gt;" style="rounded=0;whiteSpace=wrap;html=1;" parent="1" vertex="1">
          <mxGeometry x="765" y="700.5" width="80" height="40" as="geometry" />
        </mxCell>
        <mxCell id="kYZcgvSroyiyH40Z3_NP-54" value="&lt;div style=&quot;text-align: start;&quot;&gt;&lt;font face=&quot;-apple-system, BlinkMacSystemFont, Segoe WPC, Segoe UI, Ubuntu, Droid Sans, sans-serif&quot; color=&quot;#242424&quot;&gt;&lt;span style=&quot;font-size: 11px; white-space: pre;&quot;&gt;&lt;b&gt;high_res&lt;/b&gt;&lt;/span&gt;&lt;/font&gt;&lt;br&gt;&lt;/div&gt;&lt;div style=&quot;text-align: start;&quot;&gt;&lt;font face=&quot;-apple-system, BlinkMacSystemFont, Segoe WPC, Segoe UI, Ubuntu, Droid Sans, sans-serif&quot; color=&quot;#242424&quot;&gt;&lt;span style=&quot;font-size: 11px; white-space: pre;&quot;&gt;&lt;b&gt;[1,1,1024,1024]&lt;/b&gt;&lt;/span&gt;&lt;b style=&quot;font-size: 11px; white-space: pre;&quot;&gt;&lt;br&gt;&lt;/b&gt;&lt;/font&gt;&lt;/div&gt;" style="rounded=0;whiteSpace=wrap;html=1;" parent="1" vertex="1">
          <mxGeometry x="657.5" y="700.5" width="100" height="40" as="geometry" />
        </mxCell>
        <mxCell id="kYZcgvSroyiyH40Z3_NP-55" value="&lt;div style=&quot;text-align: start;&quot;&gt;&lt;font face=&quot;-apple-system, BlinkMacSystemFont, Segoe WPC, Segoe UI, Ubuntu, Droid Sans, sans-serif&quot; color=&quot;#242424&quot;&gt;&lt;span style=&quot;font-size: 11px; white-space: pre;&quot;&gt;&lt;b&gt;obj_ptr&lt;/b&gt;&lt;/span&gt;&lt;/font&gt;&lt;br&gt;&lt;/div&gt;&lt;div style=&quot;text-align: start;&quot;&gt;&lt;font face=&quot;-apple-system, BlinkMacSystemFont, Segoe WPC, Segoe UI, Ubuntu, Droid Sans, sans-serif&quot; color=&quot;#242424&quot;&gt;&lt;span style=&quot;font-size: 11px; white-space: pre;&quot;&gt;&lt;b&gt;[1,256]&lt;/b&gt;&lt;/span&gt;&lt;b style=&quot;font-size: 11px; white-space: pre;&quot;&gt;&lt;br&gt;&lt;/b&gt;&lt;/font&gt;&lt;/div&gt;" style="rounded=0;whiteSpace=wrap;html=1;" parent="1" vertex="1">
          <mxGeometry x="363.5" y="700.5" width="90" height="40" as="geometry" />
        </mxCell>
        <mxCell id="kYZcgvSroyiyH40Z3_NP-56" value="&lt;div style=&quot;text-align: start;&quot;&gt;&lt;font face=&quot;-apple-system, BlinkMacSystemFont, Segoe WPC, Segoe UI, Ubuntu, Droid Sans, sans-serif&quot; color=&quot;#242424&quot;&gt;&lt;span style=&quot;font-size: 11px; white-space: pre;&quot;&gt;&lt;b&gt;object_score_logits&lt;/b&gt;&lt;/span&gt;&lt;/font&gt;&lt;br&gt;&lt;/div&gt;&lt;div style=&quot;text-align: start;&quot;&gt;&lt;font face=&quot;-apple-system, BlinkMacSystemFont, Segoe WPC, Segoe UI, Ubuntu, Droid Sans, sans-serif&quot; color=&quot;#242424&quot;&gt;&lt;span style=&quot;font-size: 11px; white-space: pre;&quot;&gt;&lt;b&gt;[1,1]&lt;/b&gt;&lt;/span&gt;&lt;b style=&quot;font-size: 11px; white-space: pre;&quot;&gt;&lt;br&gt;&lt;/b&gt;&lt;/font&gt;&lt;/div&gt;" style="rounded=0;whiteSpace=wrap;html=1;" parent="1" vertex="1">
          <mxGeometry x="457" y="700.5" width="110" height="40" as="geometry" />
        </mxCell>
        <mxCell id="kYZcgvSroyiyH40Z3_NP-57" value="" style="endArrow=classic;html=1;rounded=0;exitX=0.776;exitY=1.001;exitDx=0;exitDy=0;exitPerimeter=0;" parent="1" source="kYZcgvSroyiyH40Z3_NP-43" target="kYZcgvSroyiyH40Z3_NP-49" edge="1">
          <mxGeometry width="50" height="50" relative="1" as="geometry">
            <mxPoint x="898.5" y="640" as="sourcePoint" />
            <mxPoint x="1009" y="638.5" as="targetPoint" />
          </mxGeometry>
        </mxCell>
        <mxCell id="kYZcgvSroyiyH40Z3_NP-58" value="" style="endArrow=classic;html=1;rounded=0;exitX=0.913;exitY=0.98;exitDx=0;exitDy=0;exitPerimeter=0;" parent="1" source="kYZcgvSroyiyH40Z3_NP-43" target="kYZcgvSroyiyH40Z3_NP-50" edge="1">
          <mxGeometry width="50" height="50" relative="1" as="geometry">
            <mxPoint x="1001.5" y="640" as="sourcePoint" />
            <mxPoint x="1224" y="638.5" as="targetPoint" />
          </mxGeometry>
        </mxCell>
        <mxCell id="kYZcgvSroyiyH40Z3_NP-59" value="" style="endArrow=classic;html=1;rounded=0;exitX=0.627;exitY=0.988;exitDx=0;exitDy=0;exitPerimeter=0;" parent="1" source="kYZcgvSroyiyH40Z3_NP-43" target="kYZcgvSroyiyH40Z3_NP-53" edge="1">
          <mxGeometry width="50" height="50" relative="1" as="geometry">
            <mxPoint x="680.5" y="638.5" as="sourcePoint" />
            <mxPoint x="735.5" y="638.5" as="targetPoint" />
          </mxGeometry>
        </mxCell>
        <mxCell id="kYZcgvSroyiyH40Z3_NP-60" value="" style="endArrow=classic;html=1;rounded=0;exitX=0.488;exitY=1.01;exitDx=0;exitDy=0;exitPerimeter=0;" parent="1" source="kYZcgvSroyiyH40Z3_NP-43" target="kYZcgvSroyiyH40Z3_NP-54" edge="1">
          <mxGeometry width="50" height="50" relative="1" as="geometry">
            <mxPoint x="770.5" y="628.5" as="sourcePoint" />
            <mxPoint x="735.5" y="638.5" as="targetPoint" />
          </mxGeometry>
        </mxCell>
        <mxCell id="kYZcgvSroyiyH40Z3_NP-61" value="" style="endArrow=classic;html=1;rounded=0;exitX=0.05;exitY=0.985;exitDx=0;exitDy=0;exitPerimeter=0;" parent="1" source="kYZcgvSroyiyH40Z3_NP-43" target="kYZcgvSroyiyH40Z3_NP-55" edge="1">
          <mxGeometry width="50" height="50" relative="1" as="geometry">
            <mxPoint x="897" y="640" as="sourcePoint" />
            <mxPoint x="925.5" y="628.5" as="targetPoint" />
          </mxGeometry>
        </mxCell>
        <mxCell id="kYZcgvSroyiyH40Z3_NP-62" value="" style="endArrow=classic;html=1;rounded=0;" parent="1" target="kYZcgvSroyiyH40Z3_NP-56" edge="1">
          <mxGeometry width="50" height="50" relative="1" as="geometry">
            <mxPoint x="512" y="630" as="sourcePoint" />
            <mxPoint x="925.5" y="628.5" as="targetPoint" />
          </mxGeometry>
        </mxCell>
        <mxCell id="kYZcgvSroyiyH40Z3_NP-63" value="&lt;div style=&quot;text-align: start;&quot;&gt;&lt;font face=&quot;-apple-system, BlinkMacSystemFont, Segoe WPC, Segoe UI, Ubuntu, Droid Sans, sans-serif&quot; color=&quot;#242424&quot;&gt;&lt;span style=&quot;font-size: 11px; white-space: pre;&quot;&gt;&lt;b&gt;ious&lt;/b&gt;&lt;/span&gt;&lt;/font&gt;&lt;br&gt;&lt;/div&gt;&lt;div style=&quot;text-align: start;&quot;&gt;&lt;font face=&quot;-apple-system, BlinkMacSystemFont, Segoe WPC, Segoe UI, Ubuntu, Droid Sans, sans-serif&quot; color=&quot;#242424&quot;&gt;&lt;span style=&quot;font-size: 11px; white-space: pre;&quot;&gt;&lt;b&gt;[1,3]&lt;/b&gt;&lt;/span&gt;&lt;b style=&quot;font-size: 11px; white-space: pre;&quot;&gt;&lt;br&gt;&lt;/b&gt;&lt;/font&gt;&lt;/div&gt;" style="rounded=0;whiteSpace=wrap;html=1;" parent="1" vertex="1">
          <mxGeometry x="570.5" y="700.5" width="80" height="40" as="geometry" />
        </mxCell>
        <mxCell id="kYZcgvSroyiyH40Z3_NP-64" value="" style="endArrow=classic;html=1;rounded=0;entryX=0.438;entryY=0.059;entryDx=0;entryDy=0;entryPerimeter=0;exitX=0.336;exitY=0.995;exitDx=0;exitDy=0;exitPerimeter=0;" parent="1" source="kYZcgvSroyiyH40Z3_NP-43" target="kYZcgvSroyiyH40Z3_NP-63" edge="1">
          <mxGeometry width="50" height="50" relative="1" as="geometry">
            <mxPoint x="600.5" y="628.5" as="sourcePoint" />
            <mxPoint x="715.5" y="658.5" as="targetPoint" />
          </mxGeometry>
        </mxCell>
        <mxCell id="wb2xqiaQXkxDXaYG9y4y-17" value="" style="edgeStyle=orthogonalEdgeStyle;rounded=0;orthogonalLoop=1;jettySize=auto;html=1;" edge="1" parent="1" source="kYZcgvSroyiyH40Z3_NP-65" target="kYZcgvSroyiyH40Z3_NP-3">
          <mxGeometry relative="1" as="geometry">
            <Array as="points">
              <mxPoint x="630" y="63" />
              <mxPoint x="630" y="40" />
            </Array>
          </mxGeometry>
        </mxCell>
        <mxCell id="wb2xqiaQXkxDXaYG9y4y-18" value="[2]" style="edgeLabel;html=1;align=center;verticalAlign=middle;resizable=0;points=[];" vertex="1" connectable="0" parent="wb2xqiaQXkxDXaYG9y4y-17">
          <mxGeometry x="-0.7312" relative="1" as="geometry">
            <mxPoint x="18" as="offset" />
          </mxGeometry>
        </mxCell>
        <mxCell id="kYZcgvSroyiyH40Z3_NP-65" value="&lt;div style=&quot;text-align: start;&quot;&gt;&lt;span style=&quot;background-color: initial; text-align: center; font-size: 11px; white-space: pre;&quot;&gt;&lt;font face=&quot;-apple-system, BlinkMacSystemFont, Segoe WPC, Segoe UI, Ubuntu, Droid Sans, sans-serif&quot; color=&quot;#242424&quot;&gt;&lt;b&gt;current_vision_feats&lt;/b&gt;&lt;/font&gt;&lt;/span&gt;&lt;span style=&quot;background-color: initial; font-size: 11px; white-space: pre;&quot;&gt;&lt;font face=&quot;-apple-system, BlinkMacSystemFont, Segoe WPC, Segoe UI, Ubuntu, Droid Sans, sans-serif&quot; color=&quot;#242424&quot;&gt;&lt;b&gt;[3]&lt;/b&gt;&lt;/font&gt;&lt;/span&gt;&lt;/div&gt;&lt;div style=&quot;text-align: start;&quot;&gt;&lt;span style=&quot;background-color: initial;&quot;&gt;&lt;font style=&quot;&quot; face=&quot;-apple-system, BlinkMacSystemFont, Segoe WPC, Segoe UI, Ubuntu, Droid Sans, sans-serif&quot; color=&quot;#242424&quot;&gt;&lt;span style=&quot;font-size: 11px; white-space: pre;&quot;&gt;&lt;b&gt;[65536,1,32]&lt;/b&gt;&lt;/span&gt;&lt;b style=&quot;font-size: 11px; white-space: pre;&quot;&gt;&lt;br&gt;&lt;/b&gt;&lt;/font&gt;&lt;/span&gt;&lt;/div&gt;&lt;div style=&quot;text-align: start;&quot;&gt;&lt;span style=&quot;background-color: initial;&quot;&gt;&lt;font style=&quot;&quot; face=&quot;-apple-system, BlinkMacSystemFont, Segoe WPC, Segoe UI, Ubuntu, Droid Sans, sans-serif&quot; color=&quot;#242424&quot;&gt;&lt;span style=&quot;font-size: 11px; white-space: pre;&quot;&gt;&lt;b&gt;[16384, 1, 64]&lt;/b&gt;&lt;/span&gt;&lt;b style=&quot;font-size: 11px; white-space: pre;&quot;&gt;&lt;br&gt;&lt;/b&gt;&lt;/font&gt;&lt;/span&gt;&lt;/div&gt;&lt;div style=&quot;text-align: start;&quot;&gt;&lt;span style=&quot;background-color: initial;&quot;&gt;&lt;font style=&quot;&quot; face=&quot;-apple-system, BlinkMacSystemFont, Segoe WPC, Segoe UI, Ubuntu, Droid Sans, sans-serif&quot; color=&quot;#242424&quot;&gt;&lt;span style=&quot;font-size: 11px; white-space: pre;&quot;&gt;&lt;b&gt;[4096, 1, 256]&lt;/b&gt;&lt;/span&gt;&lt;b style=&quot;font-size: 11px; white-space: pre;&quot;&gt;&lt;br&gt;&lt;/b&gt;&lt;/font&gt;&lt;/span&gt;&lt;/div&gt;" style="rounded=0;whiteSpace=wrap;html=1;" parent="1" vertex="1">
          <mxGeometry x="440" y="30" width="129" height="65" as="geometry" />
        </mxCell>
        <mxCell id="kYZcgvSroyiyH40Z3_NP-66" value="NxCxHxW to HWxNxC" style="text;html=1;align=center;verticalAlign=middle;resizable=0;points=[];autosize=1;strokeColor=none;fillColor=none;fontColor=#FF1414;fontSize=8;" parent="1" vertex="1">
          <mxGeometry x="343" y="40" width="100" height="20" as="geometry" />
        </mxCell>
        <mxCell id="wb2xqiaQXkxDXaYG9y4y-15" value="" style="edgeStyle=orthogonalEdgeStyle;rounded=0;orthogonalLoop=1;jettySize=auto;html=1;" edge="1" parent="1" source="kYZcgvSroyiyH40Z3_NP-67" target="kYZcgvSroyiyH40Z3_NP-5">
          <mxGeometry relative="1" as="geometry">
            <Array as="points">
              <mxPoint x="650" y="165" />
              <mxPoint x="650" y="90" />
            </Array>
          </mxGeometry>
        </mxCell>
        <mxCell id="wb2xqiaQXkxDXaYG9y4y-16" value="[2]" style="edgeLabel;html=1;align=center;verticalAlign=middle;resizable=0;points=[];" vertex="1" connectable="0" parent="wb2xqiaQXkxDXaYG9y4y-15">
          <mxGeometry x="-0.1464" y="-1" relative="1" as="geometry">
            <mxPoint x="-18" y="37" as="offset" />
          </mxGeometry>
        </mxCell>
        <mxCell id="kYZcgvSroyiyH40Z3_NP-67" value="&lt;div style=&quot;text-align: start;&quot;&gt;&lt;span style=&quot;background-color: initial; text-align: center; font-size: 11px; white-space: pre;&quot;&gt;&lt;font face=&quot;-apple-system, BlinkMacSystemFont, Segoe WPC, Segoe UI, Ubuntu, Droid Sans, sans-serif&quot; color=&quot;#242424&quot;&gt;&lt;b&gt;current_vision_pos_embeds&lt;/b&gt;&lt;/font&gt;&lt;/span&gt;&lt;span style=&quot;background-color: initial; font-size: 11px; white-space: pre;&quot;&gt;&lt;font face=&quot;-apple-system, BlinkMacSystemFont, Segoe WPC, Segoe UI, Ubuntu, Droid Sans, sans-serif&quot; color=&quot;#242424&quot;&gt;&lt;b&gt;[3]&lt;/b&gt;&lt;/font&gt;&lt;/span&gt;&lt;/div&gt;&lt;div style=&quot;text-align: start;&quot;&gt;&lt;font face=&quot;-apple-system, BlinkMacSystemFont, Segoe WPC, Segoe UI, Ubuntu, Droid Sans, sans-serif&quot; color=&quot;#242424&quot;&gt;&lt;span style=&quot;font-size: 11px; white-space: pre;&quot;&gt;&lt;b&gt;[65536, 1, 256]&lt;/b&gt;&lt;/span&gt;&lt;/font&gt;&lt;/div&gt;&lt;div style=&quot;text-align: start;&quot;&gt;&lt;font face=&quot;-apple-system, BlinkMacSystemFont, Segoe WPC, Segoe UI, Ubuntu, Droid Sans, sans-serif&quot; color=&quot;#242424&quot;&gt;&lt;span style=&quot;font-size: 11px; white-space: pre;&quot;&gt;&lt;b&gt;[16384, 1, 256]&lt;br&gt;[4096, 1, 256]&lt;/b&gt;&lt;/span&gt;&lt;b style=&quot;font-size: 11px; white-space: pre;&quot;&gt;&lt;br&gt;&lt;/b&gt;&lt;/font&gt;&lt;/div&gt;" style="rounded=0;whiteSpace=wrap;html=1;" parent="1" vertex="1">
          <mxGeometry x="447" y="130" width="159" height="70" as="geometry" />
        </mxCell>
        <mxCell id="kYZcgvSroyiyH40Z3_NP-68" value="NxCxHxW to HWxNxC" style="text;html=1;align=center;verticalAlign=middle;resizable=0;points=[];autosize=1;strokeColor=none;fillColor=none;fontColor=#FF1414;fontSize=8;" parent="1" vertex="1">
          <mxGeometry x="347" y="140" width="100" height="20" as="geometry" />
        </mxCell>
        <mxCell id="kYZcgvSroyiyH40Z3_NP-73" value="" style="edgeStyle=elbowEdgeStyle;elbow=horizontal;endArrow=classic;html=1;curved=0;rounded=0;endSize=8;startSize=8;exitX=0.563;exitY=1.024;exitDx=0;exitDy=0;exitPerimeter=0;" parent="1" source="kYZcgvSroyiyH40Z3_NP-54" target="kYZcgvSroyiyH40Z3_NP-40" edge="1">
          <mxGeometry width="50" height="50" relative="1" as="geometry">
            <mxPoint x="381.5" y="970" as="sourcePoint" />
            <mxPoint x="290" y="880" as="targetPoint" />
            <Array as="points">
              <mxPoint x="714" y="790" />
              <mxPoint x="810" y="810" />
            </Array>
          </mxGeometry>
        </mxCell>
        <mxCell id="kYZcgvSroyiyH40Z3_NP-74" value="[sigmoid]" style="edgeLabel;html=1;align=center;verticalAlign=middle;resizable=0;points=[];" parent="kYZcgvSroyiyH40Z3_NP-73" vertex="1" connectable="0">
          <mxGeometry x="-0.1554" relative="1" as="geometry">
            <mxPoint as="offset" />
          </mxGeometry>
        </mxCell>
        <mxCell id="kYZcgvSroyiyH40Z3_NP-75" value="[x20]" style="edgeLabel;html=1;align=center;verticalAlign=middle;resizable=0;points=[];" parent="kYZcgvSroyiyH40Z3_NP-73" vertex="1" connectable="0">
          <mxGeometry x="0.187" relative="1" as="geometry">
            <mxPoint as="offset" />
          </mxGeometry>
        </mxCell>
        <mxCell id="kYZcgvSroyiyH40Z3_NP-76" value="[-10]" style="edgeLabel;html=1;align=center;verticalAlign=middle;resizable=0;points=[];" parent="kYZcgvSroyiyH40Z3_NP-73" vertex="1" connectable="0">
          <mxGeometry x="0.5205" y="1" relative="1" as="geometry">
            <mxPoint as="offset" />
          </mxGeometry>
        </mxCell>
        <mxCell id="kYZcgvSroyiyH40Z3_NP-77" value="" style="edgeStyle=orthogonalEdgeStyle;rounded=0;orthogonalLoop=1;jettySize=auto;html=1;" parent="1" source="kYZcgvSroyiyH40Z3_NP-78" target="kYZcgvSroyiyH40Z3_NP-89" edge="1">
          <mxGeometry relative="1" as="geometry" />
        </mxCell>
        <mxCell id="kYZcgvSroyiyH40Z3_NP-78" value="&lt;div style=&quot;text-align: start;&quot;&gt;&lt;font face=&quot;-apple-system, BlinkMacSystemFont, Segoe WPC, Segoe UI, Ubuntu, Droid Sans, sans-serif&quot; color=&quot;#242424&quot;&gt;&lt;span style=&quot;font-size: 11px; white-space: pre;&quot;&gt;&lt;b&gt;缓存前7帧&lt;/b&gt;&lt;/span&gt;&lt;/font&gt;&lt;/div&gt;" style="rounded=0;whiteSpace=wrap;html=1;fillColor=#d5e8d4;strokeColor=#82b366;" parent="1" vertex="1">
          <mxGeometry x="511.63" y="342.5" width="72.5" height="25" as="geometry" />
        </mxCell>
        <mxCell id="wb2xqiaQXkxDXaYG9y4y-8" value="" style="edgeStyle=orthogonalEdgeStyle;rounded=0;orthogonalLoop=1;jettySize=auto;html=1;entryX=0;entryY=0.5;entryDx=0;entryDy=0;" edge="1" parent="1" source="kYZcgvSroyiyH40Z3_NP-80" target="kYZcgvSroyiyH40Z3_NP-85">
          <mxGeometry relative="1" as="geometry">
            <Array as="points">
              <mxPoint x="780" y="375" />
            </Array>
          </mxGeometry>
        </mxCell>
        <mxCell id="kYZcgvSroyiyH40Z3_NP-80" value="&lt;div style=&quot;text-align: start;&quot;&gt;&lt;b style=&quot;color: rgb(36, 36, 36); font-family: -apple-system, BlinkMacSystemFont, &amp;quot;Segoe WPC&amp;quot;, &amp;quot;Segoe UI&amp;quot;, Ubuntu, &amp;quot;Droid Sans&amp;quot;, sans-serif; font-size: 11px; white-space: pre;&quot;&gt;缓存前7帧&lt;/b&gt;&lt;br&gt;&lt;/div&gt;" style="rounded=0;whiteSpace=wrap;html=1;fillColor=#d5e8d4;strokeColor=#82b366;" parent="1" vertex="1">
          <mxGeometry x="710.13" y="423.75" width="89.87" height="32.5" as="geometry" />
        </mxCell>
        <mxCell id="kYZcgvSroyiyH40Z3_NP-81" value="&lt;font color=&quot;#ff0000&quot; style=&quot;font-size: 8px;&quot;&gt;[1,64,64,64]-&amp;gt;&lt;/font&gt;&lt;span style=&quot;font-size: 8px; color: rgb(255, 0, 0); background-color: initial;&quot;&gt;[1,64,64*64] -&amp;gt;&lt;/span&gt;&lt;span style=&quot;font-size: 8px; color: rgb(255, 0, 0); background-color: initial;&quot;&gt;[4096,1,64]&lt;/span&gt;" style="text;html=1;align=left;verticalAlign=middle;resizable=0;points=[];autosize=1;strokeColor=none;fillColor=none;" parent="1" vertex="1">
          <mxGeometry x="462.88" y="416" width="170" height="30" as="geometry" />
        </mxCell>
        <mxCell id="kYZcgvSroyiyH40Z3_NP-82" value="&lt;font style=&quot;font-size: 8px;&quot;&gt;[1,64,64,64]-&amp;gt;&lt;/font&gt;&lt;span style=&quot;font-size: 8px; background-color: initial;&quot;&gt;[1,64,64*64] -&amp;gt;&lt;/span&gt;&lt;span style=&quot;font-size: 8px; background-color: initial;&quot;&gt;[4096,1,64]&lt;/span&gt;" style="text;html=1;align=left;verticalAlign=middle;resizable=0;points=[];autosize=1;strokeColor=none;fillColor=none;fontColor=#A9C4EB;" parent="1" vertex="1">
          <mxGeometry x="587.5" y="365" width="170" height="30" as="geometry" />
        </mxCell>
        <mxCell id="wb2xqiaQXkxDXaYG9y4y-7" value="" style="edgeStyle=orthogonalEdgeStyle;rounded=0;orthogonalLoop=1;jettySize=auto;html=1;" edge="1" parent="1" source="kYZcgvSroyiyH40Z3_NP-84" target="kYZcgvSroyiyH40Z3_NP-85">
          <mxGeometry relative="1" as="geometry" />
        </mxCell>
        <mxCell id="kYZcgvSroyiyH40Z3_NP-84" value="&lt;div style=&quot;text-align: start;&quot;&gt;&lt;font face=&quot;-apple-system, BlinkMacSystemFont, Segoe WPC, Segoe UI, Ubuntu, Droid Sans, sans-serif&quot; color=&quot;#242424&quot;&gt;&lt;span style=&quot;font-size: 11px; white-space: pre;&quot;&gt;&lt;b&gt;时间编码&lt;/b&gt;&lt;/span&gt;&lt;/font&gt;&lt;/div&gt;&lt;div style=&quot;text-align: start;&quot;&gt;&lt;font face=&quot;-apple-system, BlinkMacSystemFont, Segoe WPC, Segoe UI, Ubuntu, Droid Sans, sans-serif&quot; color=&quot;#242424&quot;&gt;&lt;span style=&quot;font-size: 11px; white-space: pre;&quot;&gt;&lt;b&gt;[7,1,1,64]&lt;/b&gt;&lt;/span&gt;&lt;/font&gt;&lt;/div&gt;" style="rounded=0;whiteSpace=wrap;html=1;fillColor=#60a917;strokeColor=#2D7600;fontColor=#ffffff;" parent="1" vertex="1">
          <mxGeometry x="823" y="447.75" width="60" height="32.5" as="geometry" />
        </mxCell>
        <mxCell id="wb2xqiaQXkxDXaYG9y4y-4" value="" style="edgeStyle=orthogonalEdgeStyle;rounded=0;orthogonalLoop=1;jettySize=auto;html=1;" edge="1" parent="1" source="kYZcgvSroyiyH40Z3_NP-85" target="kYZcgvSroyiyH40Z3_NP-6">
          <mxGeometry relative="1" as="geometry" />
        </mxCell>
        <mxCell id="kYZcgvSroyiyH40Z3_NP-85" value="&lt;font style=&quot;font-size: 9px;&quot;&gt;add&lt;/font&gt;" style="ellipse;whiteSpace=wrap;html=1;aspect=fixed;" parent="1" vertex="1">
          <mxGeometry x="840.5" y="362.5" width="25" height="25" as="geometry" />
        </mxCell>
        <mxCell id="kYZcgvSroyiyH40Z3_NP-87" value="&lt;div style=&quot;text-align: start;&quot;&gt;&lt;font face=&quot;-apple-system, BlinkMacSystemFont, Segoe WPC, Segoe UI, Ubuntu, Droid Sans, sans-serif&quot; color=&quot;#242424&quot;&gt;&lt;span style=&quot;font-size: 11px; white-space: pre;&quot;&gt;&lt;b&gt;video_res_masks&lt;/b&gt;&lt;/span&gt;&lt;/font&gt;&lt;br&gt;&lt;/div&gt;&lt;div style=&quot;text-align: start;&quot;&gt;&lt;font face=&quot;-apple-system, BlinkMacSystemFont, Segoe WPC, Segoe UI, Ubuntu, Droid Sans, sans-serif&quot; color=&quot;#242424&quot;&gt;&lt;span style=&quot;font-size: 11px; white-space: pre;&quot;&gt;&lt;b&gt;[1,H,W]&lt;/b&gt;&lt;/span&gt;&lt;/font&gt;&lt;/div&gt;" style="rounded=0;whiteSpace=wrap;html=1;fillColor=#f8cecc;strokeColor=#b85450;" parent="1" vertex="1">
          <mxGeometry x="752.5" y="830" width="105" height="40" as="geometry" />
        </mxCell>
        <mxCell id="wb2xqiaQXkxDXaYG9y4y-10" value="" style="edgeStyle=orthogonalEdgeStyle;rounded=0;orthogonalLoop=1;jettySize=auto;html=1;entryX=-0.004;entryY=0.786;entryDx=0;entryDy=0;entryPerimeter=0;" edge="1" parent="1" source="kYZcgvSroyiyH40Z3_NP-89" target="kYZcgvSroyiyH40Z3_NP-2">
          <mxGeometry relative="1" as="geometry">
            <Array as="points">
              <mxPoint x="770" y="354" />
              <mxPoint x="770" y="134" />
            </Array>
          </mxGeometry>
        </mxCell>
        <mxCell id="kYZcgvSroyiyH40Z3_NP-89" value="&lt;div&gt;&lt;span style=&quot;font-size: 11px; text-wrap: nowrap;&quot;&gt;memory_1&lt;/span&gt;&lt;br&gt;&lt;/div&gt;&lt;span style=&quot;font-size: 11px; text-wrap: nowrap;&quot;&gt;[7,64,64,64]&lt;/span&gt;" style="rounded=0;whiteSpace=wrap;html=1;fillColor=#ffe6cc;strokeColor=#d79b00;" parent="1" vertex="1">
          <mxGeometry x="632.88" y="335" width="77.25" height="38.75" as="geometry" />
        </mxCell>
        <mxCell id="wb2xqiaQXkxDXaYG9y4y-9" value="" style="edgeStyle=orthogonalEdgeStyle;rounded=0;orthogonalLoop=1;jettySize=auto;html=1;entryX=0.002;entryY=0.729;entryDx=0;entryDy=0;entryPerimeter=0;" edge="1" parent="1" source="kYZcgvSroyiyH40Z3_NP-91" target="kYZcgvSroyiyH40Z3_NP-2">
          <mxGeometry relative="1" as="geometry">
            <Array as="points">
              <mxPoint x="730" y="270" />
              <mxPoint x="730" y="124" />
            </Array>
          </mxGeometry>
        </mxCell>
        <mxCell id="kYZcgvSroyiyH40Z3_NP-91" value="&lt;div&gt;memory_0&lt;br&gt;&lt;/div&gt;[16,256]" style="rounded=0;whiteSpace=wrap;html=1;fillColor=#ffe6cc;strokeColor=#d79b00;" parent="1" vertex="1">
          <mxGeometry x="632.88" y="252.5" width="77.25" height="35" as="geometry" />
        </mxCell>
        <mxCell id="kYZcgvSroyiyH40Z3_NP-94" value="" style="edgeStyle=orthogonalEdgeStyle;rounded=0;orthogonalLoop=1;jettySize=auto;html=1;" parent="1" source="kYZcgvSroyiyH40Z3_NP-95" target="kYZcgvSroyiyH40Z3_NP-91" edge="1">
          <mxGeometry relative="1" as="geometry">
            <mxPoint x="497.0000000000001" y="269.9999999999998" as="targetPoint" />
            <Array as="points">
              <mxPoint x="450" y="248" />
              <mxPoint x="450" y="270" />
            </Array>
          </mxGeometry>
        </mxCell>
        <mxCell id="kYZcgvSroyiyH40Z3_NP-95" value="&lt;font style=&quot;font-size: 8px;&quot;&gt;第一帧的obj_ptr&lt;/font&gt;&lt;div&gt;&lt;span style=&quot;font-size: 8px;&quot;&gt;[1,256]&lt;/span&gt;&lt;/div&gt;" style="rounded=0;whiteSpace=wrap;html=1;" parent="1" vertex="1">
          <mxGeometry x="347" y="230" width="73" height="35" as="geometry" />
        </mxCell>
        <mxCell id="wb2xqiaQXkxDXaYG9y4y-28" value="" style="edgeStyle=orthogonalEdgeStyle;rounded=0;orthogonalLoop=1;jettySize=auto;html=1;entryX=0;entryY=0.5;entryDx=0;entryDy=0;" edge="1" parent="1" source="kYZcgvSroyiyH40Z3_NP-97" target="kYZcgvSroyiyH40Z3_NP-91">
          <mxGeometry relative="1" as="geometry">
            <Array as="points">
              <mxPoint x="450" y="291" />
              <mxPoint x="450" y="270" />
            </Array>
          </mxGeometry>
        </mxCell>
        <mxCell id="wb2xqiaQXkxDXaYG9y4y-29" value="cat()" style="edgeLabel;html=1;align=center;verticalAlign=middle;resizable=0;points=[];" vertex="1" connectable="0" parent="wb2xqiaQXkxDXaYG9y4y-28">
          <mxGeometry x="0.0192" y="-1" relative="1" as="geometry">
            <mxPoint as="offset" />
          </mxGeometry>
        </mxCell>
        <mxCell id="kYZcgvSroyiyH40Z3_NP-97" value="&lt;font style=&quot;font-size: 8px;&quot;&gt;最近15帧的obj_ptr&lt;/font&gt;&lt;div&gt;&lt;font style=&quot;font-size: 8px;&quot;&gt;[15,256]&lt;/font&gt;&lt;/div&gt;" style="rounded=0;whiteSpace=wrap;html=1;" parent="1" vertex="1">
          <mxGeometry x="347" y="272.5" width="73" height="37.5" as="geometry" />
        </mxCell>
        <mxCell id="kYZcgvSroyiyH40Z3_NP-102" value="&lt;font color=&quot;#ffb570&quot; style=&quot;font-size: 8px;&quot;&gt;第一行固定是1st的obj_ptr&lt;/font&gt;&lt;div style=&quot;font-size: 8px;&quot;&gt;&lt;font color=&quot;#ffb570&quot; style=&quot;font-size: 8px;&quot;&gt;之后行按照帧距离排列&lt;/font&gt;&lt;/div&gt;" style="text;html=1;align=left;verticalAlign=middle;resizable=0;points=[];autosize=1;strokeColor=none;fillColor=none;" parent="1" vertex="1">
          <mxGeometry x="471.5" y="265" width="110" height="40" as="geometry" />
        </mxCell>
        <mxCell id="kYZcgvSroyiyH40Z3_NP-105" value="&lt;div style=&quot;text-align: start;&quot;&gt;&lt;font face=&quot;-apple-system, BlinkMacSystemFont, Segoe WPC, Segoe UI, Ubuntu, Droid Sans, sans-serif&quot; color=&quot;#242424&quot;&gt;&lt;span style=&quot;font-size: 11px; white-space: pre;&quot;&gt;&lt;b&gt;obj_ptr缓存&lt;/b&gt;&lt;/span&gt;&lt;/font&gt;&lt;/div&gt;" style="rounded=0;whiteSpace=wrap;html=1;fillColor=#d5e8d4;strokeColor=#82b366;" parent="1" vertex="1">
          <mxGeometry x="210" y="245" width="90" height="53.12" as="geometry" />
        </mxCell>
        <mxCell id="kYZcgvSroyiyH40Z3_NP-106" value="" style="edgeStyle=elbowEdgeStyle;elbow=vertical;endArrow=classic;html=1;curved=0;rounded=0;endSize=8;startSize=8;" parent="1" source="kYZcgvSroyiyH40Z3_NP-55" target="kYZcgvSroyiyH40Z3_NP-105" edge="1">
          <mxGeometry width="50" height="50" relative="1" as="geometry">
            <mxPoint x="230" y="560" as="sourcePoint" />
            <mxPoint x="280" y="510" as="targetPoint" />
            <Array as="points">
              <mxPoint x="250" y="730" />
            </Array>
          </mxGeometry>
        </mxCell>
        <mxCell id="kYZcgvSroyiyH40Z3_NP-107" value="" style="endArrow=classic;html=1;rounded=0;entryX=0.019;entryY=0.579;entryDx=0;entryDy=0;entryPerimeter=0;" parent="1" source="kYZcgvSroyiyH40Z3_NP-105" target="kYZcgvSroyiyH40Z3_NP-95" edge="1">
          <mxGeometry width="50" height="50" relative="1" as="geometry">
            <mxPoint x="390" y="330" as="sourcePoint" />
            <mxPoint x="440" y="280" as="targetPoint" />
          </mxGeometry>
        </mxCell>
        <mxCell id="kYZcgvSroyiyH40Z3_NP-108" value="" style="endArrow=classic;html=1;rounded=0;" parent="1" source="kYZcgvSroyiyH40Z3_NP-105" target="kYZcgvSroyiyH40Z3_NP-97" edge="1">
          <mxGeometry width="50" height="50" relative="1" as="geometry">
            <mxPoint x="390" y="330" as="sourcePoint" />
            <mxPoint x="440" y="280" as="targetPoint" />
          </mxGeometry>
        </mxCell>
        <mxCell id="kYZcgvSroyiyH40Z3_NP-109" value="&lt;div style=&quot;text-align: start;&quot;&gt;&lt;font face=&quot;-apple-system, BlinkMacSystemFont, Segoe WPC, Segoe UI, Ubuntu, Droid Sans, sans-serif&quot; color=&quot;#242424&quot;&gt;&lt;span style=&quot;font-size: 11px; white-space: pre;&quot;&gt;&lt;b&gt;high_res_features_0&lt;br&gt;&lt;/b&gt;&lt;/span&gt;&lt;/font&gt;[1, 32, 256, 256]&lt;br&gt;&lt;/div&gt;" style="rounded=0;whiteSpace=wrap;html=1;fillColor=#ffe6cc;strokeColor=#d79b00;" parent="1" vertex="1">
          <mxGeometry x="1230" y="411" width="160" height="40" as="geometry" />
        </mxCell>
        <mxCell id="kYZcgvSroyiyH40Z3_NP-110" value="&lt;div style=&quot;text-align: start;&quot;&gt;&lt;font face=&quot;-apple-system, BlinkMacSystemFont, Segoe WPC, Segoe UI, Ubuntu, Droid Sans, sans-serif&quot; color=&quot;#242424&quot;&gt;&lt;span style=&quot;font-size: 11px; white-space: pre;&quot;&gt;&lt;b&gt;high_res_features_1&lt;/b&gt;&lt;/span&gt;&lt;b style=&quot;font-size: 11px; white-space: pre;&quot;&gt;&lt;br&gt;[1, 64, 128, 128]&lt;/b&gt;&lt;/font&gt;&lt;br&gt;&lt;/div&gt;" style="rounded=0;whiteSpace=wrap;html=1;fillColor=#ffe6cc;strokeColor=#d79b00;" parent="1" vertex="1">
          <mxGeometry x="1064.5" y="411" width="160" height="40" as="geometry" />
        </mxCell>
        <mxCell id="kYZcgvSroyiyH40Z3_NP-111" value="" style="edgeStyle=elbowEdgeStyle;elbow=vertical;endArrow=classic;html=1;curved=0;rounded=0;endSize=8;startSize=8;exitX=0.339;exitY=-0.001;exitDx=0;exitDy=0;exitPerimeter=0;" parent="1" source="kYZcgvSroyiyH40Z3_NP-65" target="kYZcgvSroyiyH40Z3_NP-109" edge="1">
          <mxGeometry width="50" height="50" relative="1" as="geometry">
            <mxPoint x="1169" y="135" as="sourcePoint" />
            <mxPoint x="1219" y="85" as="targetPoint" />
            <Array as="points">
              <mxPoint x="670" y="-40" />
              <mxPoint x="1100" y="-60" />
            </Array>
          </mxGeometry>
        </mxCell>
        <mxCell id="kYZcgvSroyiyH40Z3_NP-112" value="[0]" style="edgeLabel;html=1;align=center;verticalAlign=middle;resizable=0;points=[];" parent="kYZcgvSroyiyH40Z3_NP-111" vertex="1" connectable="0">
          <mxGeometry x="-0.5681" relative="1" as="geometry">
            <mxPoint x="-222" y="50" as="offset" />
          </mxGeometry>
        </mxCell>
        <mxCell id="kYZcgvSroyiyH40Z3_NP-113" value="reshape" style="edgeLabel;html=1;align=center;verticalAlign=middle;resizable=0;points=[];" parent="kYZcgvSroyiyH40Z3_NP-111" vertex="1" connectable="0">
          <mxGeometry x="0.8074" y="-2" relative="1" as="geometry">
            <mxPoint as="offset" />
          </mxGeometry>
        </mxCell>
        <mxCell id="kYZcgvSroyiyH40Z3_NP-114" value="" style="edgeStyle=elbowEdgeStyle;elbow=vertical;endArrow=classic;html=1;curved=0;rounded=0;endSize=8;startSize=8;" parent="1" source="kYZcgvSroyiyH40Z3_NP-65" target="kYZcgvSroyiyH40Z3_NP-110" edge="1">
          <mxGeometry width="50" height="50" relative="1" as="geometry">
            <mxPoint x="900" y="-80" as="sourcePoint" />
            <mxPoint x="1180" y="40" as="targetPoint" />
            <Array as="points">
              <mxPoint x="1060" y="-20" />
            </Array>
          </mxGeometry>
        </mxCell>
        <mxCell id="kYZcgvSroyiyH40Z3_NP-115" value="[1]" style="edgeLabel;html=1;align=center;verticalAlign=middle;resizable=0;points=[];" parent="kYZcgvSroyiyH40Z3_NP-114" vertex="1" connectable="0">
          <mxGeometry x="-0.5602" relative="1" as="geometry">
            <mxPoint x="-197" y="30" as="offset" />
          </mxGeometry>
        </mxCell>
        <mxCell id="kYZcgvSroyiyH40Z3_NP-116" value="reshape" style="edgeLabel;html=1;align=center;verticalAlign=middle;resizable=0;points=[];" parent="kYZcgvSroyiyH40Z3_NP-114" vertex="1" connectable="0">
          <mxGeometry x="0.7706" y="-1" relative="1" as="geometry">
            <mxPoint as="offset" />
          </mxGeometry>
        </mxCell>
        <mxCell id="kYZcgvSroyiyH40Z3_NP-117" value="" style="edgeStyle=elbowEdgeStyle;elbow=vertical;endArrow=classic;html=1;curved=0;rounded=0;endSize=8;startSize=8;entryX=0.739;entryY=-0.004;entryDx=0;entryDy=0;entryPerimeter=0;" parent="1" source="kYZcgvSroyiyH40Z3_NP-110" target="kYZcgvSroyiyH40Z3_NP-43" edge="1">
          <mxGeometry width="50" height="50" relative="1" as="geometry">
            <mxPoint x="775" y="560" as="sourcePoint" />
            <mxPoint x="825" y="510" as="targetPoint" />
            <Array as="points">
              <mxPoint x="740" y="500" />
            </Array>
          </mxGeometry>
        </mxCell>
        <mxCell id="kYZcgvSroyiyH40Z3_NP-118" value="" style="edgeStyle=elbowEdgeStyle;elbow=vertical;endArrow=classic;html=1;curved=0;rounded=0;endSize=8;startSize=8;entryX=0.806;entryY=0.039;entryDx=0;entryDy=0;entryPerimeter=0;" parent="1" source="kYZcgvSroyiyH40Z3_NP-109" target="kYZcgvSroyiyH40Z3_NP-43" edge="1">
          <mxGeometry width="50" height="50" relative="1" as="geometry">
            <mxPoint x="1437.5" y="460" as="sourcePoint" />
            <mxPoint x="845" y="587.5" as="targetPoint" />
            <Array as="points">
              <mxPoint x="1207.5" y="539" />
            </Array>
          </mxGeometry>
        </mxCell>
        <mxCell id="kYZcgvSroyiyH40Z3_NP-119" value="&lt;div style=&quot;text-align: start;&quot;&gt;&lt;font face=&quot;-apple-system, BlinkMacSystemFont, Segoe WPC, Segoe UI, Ubuntu, Droid Sans, sans-serif&quot; color=&quot;#242424&quot;&gt;&lt;span style=&quot;font-size: 11px; white-space: pre;&quot;&gt;&lt;b&gt;img_size&lt;br&gt;[2],{H,W}&lt;/b&gt;&lt;/span&gt;&lt;/font&gt;&lt;/div&gt;" style="rounded=0;whiteSpace=wrap;html=1;fillColor=#ffe6cc;strokeColor=#d79b00;" parent="1" vertex="1">
          <mxGeometry x="743.5" y="489" width="89.5" height="40" as="geometry" />
        </mxCell>
        <mxCell id="kYZcgvSroyiyH40Z3_NP-120" value="" style="endArrow=classic;html=1;rounded=0;entryX=0.602;entryY=-0.033;entryDx=0;entryDy=0;entryPerimeter=0;" parent="1" source="kYZcgvSroyiyH40Z3_NP-119" target="kYZcgvSroyiyH40Z3_NP-43" edge="1">
          <mxGeometry width="50" height="50" relative="1" as="geometry">
            <mxPoint x="670" y="540" as="sourcePoint" />
            <mxPoint x="720" y="490" as="targetPoint" />
          </mxGeometry>
        </mxCell>
        <mxCell id="kYZcgvSroyiyH40Z3_NP-121" value="" style="edgeStyle=orthogonalEdgeStyle;rounded=0;orthogonalLoop=1;jettySize=auto;html=1;" parent="1" source="kYZcgvSroyiyH40Z3_NP-123" target="kYZcgvSroyiyH40Z3_NP-33" edge="1">
          <mxGeometry relative="1" as="geometry" />
        </mxCell>
        <mxCell id="kYZcgvSroyiyH40Z3_NP-122" value="resize,归一化" style="edgeLabel;html=1;align=center;verticalAlign=middle;resizable=0;points=[];" parent="kYZcgvSroyiyH40Z3_NP-121" vertex="1" connectable="0">
          <mxGeometry x="-0.0765" y="1" relative="1" as="geometry">
            <mxPoint as="offset" />
          </mxGeometry>
        </mxCell>
        <mxCell id="kYZcgvSroyiyH40Z3_NP-123" value="&lt;div style=&quot;text-align: start;&quot;&gt;&lt;font face=&quot;-apple-system, BlinkMacSystemFont, Segoe WPC, Segoe UI, Ubuntu, Droid Sans, sans-serif&quot; color=&quot;#242424&quot;&gt;&lt;span style=&quot;font-size: 11px; white-space: pre;&quot;&gt;&lt;b&gt;image&lt;br&gt;[1,3,H,W]&lt;/b&gt;&lt;/span&gt;&lt;/font&gt;&lt;/div&gt;" style="rounded=0;whiteSpace=wrap;html=1;fillColor=#f5f5f5;strokeColor=#666666;fontColor=#333333;" parent="1" vertex="1">
          <mxGeometry x="40" y="-80" width="110" height="40" as="geometry" />
        </mxCell>
        <mxCell id="wb2xqiaQXkxDXaYG9y4y-1" value="HWxNxC to NxCxHxW&amp;nbsp;" style="text;html=1;align=center;verticalAlign=middle;resizable=0;points=[];autosize=1;strokeColor=none;fillColor=none;fontColor=#FF1414;fontSize=8;" vertex="1" parent="1">
          <mxGeometry x="616.51" y="20" width="110" height="20" as="geometry" />
        </mxCell>
        <mxCell id="wb2xqiaQXkxDXaYG9y4y-11" value="第1帧开始" style="text;html=1;align=center;verticalAlign=middle;whiteSpace=wrap;rounded=0;" vertex="1" parent="1">
          <mxGeometry x="980" y="110" width="60" height="30" as="geometry" />
        </mxCell>
        <mxCell id="wb2xqiaQXkxDXaYG9y4y-27" value="" style="edgeStyle=orthogonalEdgeStyle;rounded=0;orthogonalLoop=1;jettySize=auto;html=1;" edge="1" parent="1" source="kYZcgvSroyiyH40Z3_NP-16" target="kYZcgvSroyiyH40Z3_NP-26">
          <mxGeometry relative="1" as="geometry">
            <mxPoint x="190" y="145" as="sourcePoint" />
            <mxPoint x="250" y="73" as="targetPoint" />
          </mxGeometry>
        </mxCell>
      </root>
    </mxGraphModel>
  </diagram>
</mxfile>
